<svg xmlns="http://www.w3.org/2000/svg" viewBox="0 0 6000 4000" id="farming-using-autonomous-cultivator"><path fill="#a0d5fd" d="M5520.3,1875.5H286.35c-140.93-92.19-169.9-325.64-94.32-533.23C294.08,1062,586.7,828.83,1051.67,1054c.41.2.83.39,1.24.6-104.31-226,218.29-525.85,588.37-514.45,164.75,5.08,338.92,71.84,489,234.28,402.16-723.71,1591.07-427.07,1951.15,50.25,210.94-121.8,496-146,737-55.36,228.6,86,417.42,275.36,465.34,582.87q1.94,12.45,3.57,25.17C5391.82,1481.89,5475.18,1665.93,5520.3,1875.5Z"></path><path fill="#6fc0fd" d="M5283.73,1352.2C5125.19,1445.9,4974,1635.51,4974,1635.51s-23.24-123.93-158.8-153-166.52,125.56-166.52,125.56S4517,1379.91,4343,1409.16s-271.29,156.63-271.29,156.63-58.08-189.75-242-207.18-249,110.38-249,110.38c41.6-307.76,555.79-289.65,688.54-213,0-69.7,67.77-137.47,182-46.47,0-120,72.16-277.41,247.85-101.72,0-142.47,51.42-253.7,119.34-338.46C5047,855.31,5235.81,1044.69,5283.73,1352.2Z"></path><path fill="#608010" d="M3700.86,1887.23s325.31-84.23,595.43-98.75,386.3-2.91,470.53-2.91,679.66-171.36,679.66-171.36,95.85,284.64,66.81,284.64S3700.86,1887.23,3700.86,1887.23Z"></path><path fill="#9bc231" d="M4491.88,1561.92c-20.58,0-24.48,37.68-24.48,37.68s-64.68,187-19.4,213.09a110.73,110.73,0,0,0,43.88,14v59h10.93l-3.87-58.56c29.05,1,52.91-10.1,52.91-27.52C4551.85,1772.41,4512.47,1561.92,4491.88,1561.92Z"></path><path fill="#779918" d="M4791.11,1471.2c-26.35,0-31.34,48.24-31.34,48.24s-82.81,239.31-24.83,272.78a141.75,141.75,0,0,0,56,18c1.14,26.62,3.42,69.79,6.29,69.79h6.24l-3.19-69.15c37.14,1.29,67.64-12.94,67.64-35.22C4867.88,1740.66,4817.46,1471.2,4791.11,1471.2Z"></path><path fill="#9bc231" d="M5165.53,1761.75c0,22.26-30.44,36.48-67.51,35.23-1.53-.06-3.06-.13-4.61-.24l.16,3,.29,5.31,4.11,76.46-8.32-1.1c-5.51-.75-4.93-45.7-3.91-75.84,0-.68,0-1.33.07-2,.08-2.28.16-4.46.24-6.51a141.51,141.51,0,0,1-53.47-17.67c-58-33.48,24.83-272.78,24.83-272.78s3.75-36.23,21.9-45.89a19.8,19.8,0,0,1,9.44-2.35C5115.11,1457.36,5165.53,1726.81,5165.53,1761.75Z"></path><path fill="#93c74b" d="M286.35,1875.51a561.43,561.43,0,0,0-6.73,88c-284.71,284.71-30.21,988.53,452.2,946.26,61.31,269.76,311.13,436.27,595,322.11,294.75,390.91,1104.61,451.34,1683.9,197.08,593.37,494.07,2007.12,189.47,2242.32-458,301.38-215.07,352.24-700.65,267.23-1095.55Z"></path><path fill="#6abefd" d="M2451.49,1875.5H286.35c-42.2-27.59-74.36-67.86-96.67-116.31-52.24-113.35-50.61-271.48,2.35-416.92,204.56-9.69,677.84,13,903.67,397.3,1.22,2.09,2.45,4.19,3.67,6.31q5.24-3,10.44-6c328-184.53,598.86-108.23,674.3,81.46C1976.18,1629.33,2451.49,1875.5,2451.49,1875.5Z"></path><path fill="#9bc231" d="M478.46 1285.31c-26.36 0-31.35 48.24-31.35 48.24s-82.8 239.31-24.82 272.78a141.69 141.69 0 0056.17 18v75.59h14l-4.94-75c37.18 1.32 67.73-12.93 67.73-35.22C555.23 1554.77 504.81 1285.31 478.46 1285.31zM1343.48 1565.8c-18.86 0-22.43 34.52-22.43 34.52s-59.27 171.3-17.77 195.25a101.43 101.43 0 0040.2 12.87v54.1h10l-3.54-53.66c26.62.95 48.49-9.25 48.49-25.21C1398.44 1758.67 1362.35 1565.8 1343.48 1565.8z"></path><path fill="#779918" d="M747.41,1472.85c-15.51,0-18.45,28.39-18.45,28.39s-48.74,140.85-14.61,160.55a83.28,83.28,0,0,0,32.94,10.57c.66,15.66,2,41.07,3.7,41.07h3.67l-1.88-40.7c21.86.77,39.81-7.62,39.81-20.73C792.59,1631.44,762.92,1472.85,747.41,1472.85Z"></path><path fill="#9bc231" d="M969.73,1658.09c0,19.21-26.27,31.48-58.27,30.41-1.31,0-2.64-.11-4-.2l.14,2.55.24,4.59,3.56,66-7.19-1c-4.76-.65-4.25-39.45-3.37-65.45,0-.59,0-1.15,0-1.72.07-2,.15-3.84.22-5.61A122.24,122.24,0,0,1,855,1672.45C805,1643.56,876.42,1437,876.42,1437s3.23-31.27,18.9-39.6a17,17,0,0,1,8.15-2C926.22,1395.4,969.73,1628,969.73,1658.09Z"></path><path fill="#608010" d="M1702.77,1875.5H286.35c-42.2-27.59-74.36-67.86-96.67-116.31,120.82-37.31,359.39-95.08,578.58-54,119.31,22.37,211.29,37,283.87,101.15C1131.33,1882.39,1445,1862.06,1702.77,1875.5Z"></path><path fill="#d7edfd" d="M2383.17,1763.31c0-166.54-170.39-240.11-302.06-197.52,0-170.39-278.84-205.25-371.79-81.32-65.83-166.52-224.61-158.78-468.6-89.07-24.52-144.33-101.77-256.93-189-341.39.41.2.83.39,1.24.6-104.31-226,218.29-525.85,588.37-514.45,34.81,55.07,56.21,138.51,9.56,255.65,166.14,0,314.08,181.34,248.25,402.08,87.37-50.44,360.15,0,325.3,236.23C2414.15,1461.23,2447.55,1658.74,2383.17,1763.31Z"></path><path fill="#7fc7fd" d="M3937.1,424.32c0,17.43,153.94,293.36,380.49,197.51S3937.1,139.68,3937.1,424.32Z"></path><circle cx="4554.31" cy="555.8" r="74.07" fill="#7fc7fd"></circle><path fill="#7fc7fd" d="M5303.68,1179.5s-32,94.39,69.7,196,208.15-16,146.92-110.37S5318.2,1076.39,5303.68,1179.5Z"></path><circle cx="5645.93" cy="1294.71" r="56.15" fill="#7fc7fd"></circle><path fill="#d2ebfd" d="M666.6,648s52.28,287.55,255.6,136.51,136.51-348.54-26.14-313.69S666.6,508.55,666.6,648Z"></path><circle cx="1210.14" cy="423.75" r="43" fill="#d2ebfd"></circle><path fill="#bcd845" d="M5106 3205.2L521.36 1875.51H344.88l4659.3 1425.05A996.63 996.63 0 005106 3205.2zM4519.11 3559.05L263.67 1980.63a370.45 370.45 0 00-30.54 40L4110.82 3654.74C4250.72 3635.88 4389.1 3603.46 4519.11 3559.05zM204.65 2071.58c-17.52 37.52-29.63 78.14-36.71 120.58L2163 3580h0c230.27 10.84 473.95-20.42 695.74-93zM5339.2 2895.46A647.81 647.81 0 005412 2801.3c-1095-227.53-3741.48-770.55-4498.41-925.79H784.05zM3694.93 1875.51L5539.6 1982.3q-3.36-22.85-7.33-45.43l-1595.16-61.36zM5520.79 2539A1213.2 1213.2 0 005547 2394L1702.77 1875.51H1454.48zM5557 2191.88c-.8-43.91-3.42-87.84-7.74-131.38l-2661.37-185H2190.27z"></path><path fill="#19767b" d="M556,1874.4s1835.9,501.76,1891.09,525,1054.34,270.12,1129.86,307.88,621.56,171.36,668,171.36,153.94,49.38,212,93,334,87.13,374.68,87.13,81.33,26.14,101.66,52.28,200.41,2.91,209.12,31.95S5106,3205.2,5106,3205.2L555.26,1883.36C552.84,1880.7,556,1874.4,556,1874.4ZM204.65,2071.58,2800.46,3507s52.28-7.75,91-30c5.81-37.75-2678.94-1417.4-2678.94-1417.4Zm59-90.95,4256,1577.67s134.89-29,132-49.38S272.07,1972.43,272.07,1972.43Zm688.54-95.33,1322.53,271.08s2172.58,451.17,2172.58,445.36-52.28-29-83.26-34.85-391.14-91-462.79-100.69-733.87-135.54-774.54-154.91-697.08-149.1-757.11-158.78-1399-278.83-1399-278.83l-31-3.39Zm565.42,2.9,2416.56,386.3s-317.56-65.83-360.16-77.45-1111.46-174.27-1142.45-185.89-930.09-137.48-930.09-137.48l-43.24,1.93Z"></path><path fill="#6b1e31" d="M2481,1528h-67.77l50.38-185.78a57.86,57.86,0,0,1,55.84-42.71h71Z"></path><polygon fill="#d2ebfd" points="518.47 1805.9 380.99 2038.27 672.99 2046.26 518.47 1805.9"></polygon><polygon fill="#d2ebfd" points="938.74 1828.73 816.67 2035.05 1075.93 2042.15 938.74 1828.73"></polygon><polygon fill="#d2ebfd" points="1409.49 1829.96 1304.66 2007.13 1527.31 2013.23 1409.49 1829.96"></polygon><polygon fill="#d2ebfd" points="1839.41 1827.9 1743.23 1990.45 1947.5 1996.04 1839.41 1827.9"></polygon><polygon fill="#d2ebfd" points="3193.52 1818.66 3086.77 1999.08 3313.49 2005.29 3193.52 1818.66"></polygon><polygon fill="#d2ebfd" points="3519.84 1836.38 3425.06 1996.58 3626.36 2002.09 3519.84 1836.38"></polygon><polygon fill="#d2ebfd" points="3885.36 1837.34 3803.96 1974.91 3976.84 1979.64 3885.36 1837.34"></polygon><polygon fill="#d2ebfd" points="4219.17 1835.74 4144.5 1961.95 4303.1 1966.3 4219.17 1835.74"></polygon><polygon fill="#d2ebfd" points="2221.57 1827.9 2140.33 1965.2 2312.86 1969.92 2221.57 1827.9"></polygon><path fill="#0b3336" d="M4069.56,1804.74v-61.41L3390.1,1600.39l-3.91,18.61,74.19,15.6-4.9,164.62-1149.17-10.33,6.41-192.82,249.56-25.33-1.92-18.91L990.83,1711.11l-36.12,65.63-488.52-4.39v52.28l3877.54,26.14V1807.2ZM1002.67,1729,1421,1686.56v94.37l-444.72-4ZM1440,1781v-96.39L1870.22,1641v144l-439.63-4Zm449.19-142,199.8-20.28v168.16l-199.8-1.79ZM2108,1616.84,2293.63,1598l-6.34,190.71L2108,1787.11Zm1371.24,21.74,77.5,16.3v145.25l-82.28-.74Zm96.51,20.3,93.3,19.63v122.63l-93.3-.84Zm112.31,23.63,255.78,53.81v67.29l-255.78-2.3Zm274.8,57.81,87.65,18.44v45.81l-87.65-.79Z"></path><polygon fill="#0b3336" points="3386.18 1619 3386.18 1619 3386.18 1619 3386.18 1619"></polygon><path fill="#0b3336" d="M3417.68,1746.1c0,155.49-42,281.53-93.87,281.53s-93.87-126-93.87-281.53c0-125.47-37.81-241.95,0-278.31,9-8.7,83.87-3.21,93.87-3.21C3375.66,1464.58,3417.68,1590.62,3417.68,1746.1Z"></path><path fill="#0b3336" d="M3320.1,1753.79c0,118.46,39.65,232.49,7.3,275.91-10.79,14.47-85,10.08-97.46,10.08-49.79,0-90.15-128-90.15-286s40.36-286,90.15-286S3320.1,1595.83,3320.1,1753.79Z"></path><ellipse cx="3230.41" cy="1765.96" fill="#a8908e" rx="50.65" ry="178.9"></ellipse><ellipse cx="3230.41" cy="1765.96" fill="#e3d4d3" rx="31.92" ry="112.74"></ellipse><ellipse cx="3514.27" cy="1903.11" fill="#0b3336" rx="86.75" ry="210.18"></ellipse><path fill="#0b3336" d="M3694.93,1894.18c0,116.07-40.44,210.17-90.33,210.17-10.8,0-74,16.41-83.6,8.31-34.74-29.28-6.73-127.55-6.73-218.48,0-95-37.15-175.17,0-201.25,8.27-5.8,81.25-8.93,90.33-8.93C3654.49,1684,3694.93,1778.1,3694.93,1894.18Z"></path><ellipse cx="3514.72" cy="1912.05" fill="#a8908e" rx="48.74" ry="131.47"></ellipse><path fill="#594d4c" d="M3109.37,1972.14l413.9-27.59s12.29-9.6,0-21.9-431.08,24.75-431.08,24.75Z"></path><path fill="#6b1e31" d="M3152.87,1765.09s12,46.24,20.06,99.1c6.45,42.54,10.31,89.37,3.18,119.81H3466V1848.94l-30.74-30.74-18-73.82Z"></path><path fill="#6b1e31" d="M3098,1751.64l24.72,124.89s85.3,26.58,92.56,26.58-7.23-142.35-7.23-142.35Z"></path><polygon fill="#fe4775" points="3215.32 1447.04 3197.89 1765.09 3449.14 1753.47 3405.57 1447.04 3215.32 1447.04"></polygon><polygon fill="#6b1e31" points="2826.12 1429.61 2877.48 1765.09 3152.88 1765.09 3152.88 1502.97 2956.66 1424.88 2826.12 1429.61"></polygon><polygon fill="#061d1f" points="2725.41 1883.8 2934.71 1883.8 2934.71 1704.41 2656.55 1670.8 2725.41 1883.8"></polygon><path fill="#fe4775" d="M3312.14,1384.22l58.57,40.66,46.53,301.1s-51.3,28.08-51.3,18.4S3312.14,1384.22,3312.14,1384.22Z"></path><path fill="#fe4775" d="M2505.17,1412.19l129.25-393.08s10.16-32.92,46.95-41.31S2907.93,930,2907.93,930s66.8-8.72,129.73,0,243,5.8,255.6,81.32S3323.52,1432,3323.52,1432l-480.46,15,60.26,346.61-295.53-59.06Z"></path><polygon fill="#235d8a" points="3284.55 1385.07 3140.36 1388.55 2956.66 1392.99 2843.06 1395.73 2844.4 1321.96 2844.4 1321.95 2845.63 1253.41 2845.63 1253.4 2849.84 1019.11 3251.63 1019.11 3267.13 1191.33 3284.55 1385.07"></polygon><polygon fill="#70acdb" points="3025.03 1019.11 2844.4 1321.95 2845.63 1253.41 2845.63 1253.4 2968.46 1019.11 3025.03 1019.11"></polygon><polygon fill="#70acdb" points="3267.13 1191.33 3140.36 1388.55 2956.66 1392.99 3198.77 1019.11 3251.63 1019.11 3267.13 1191.33"></polygon><polygon fill="#235d8a" points="2812.07 1019.11 2810.71 1060.31 2808.27 1134.73 2799.5 1401.53 2705.06 1399.41 2671.38 1398.65 2601.8 1397.09 2567.73 1396.33 2540.99 1395.73 2655.86 1042.06 2717.34 1033.03 2745.36 1028.91 2812.07 1019.11"></polygon><path fill="#0b3336" d="M3329.93 1161.53s1.74 82.16 5.32 84.24 26.15 0 26.15 0-3.15-88.11-6.54-88.11S3329.93 1161.53 3329.93 1161.53zM3039.43 1264V987.16s18.92-9.2 21.8 0 2.57 276.8 2.57 276.8S3045.65 1273.35 3039.43 1264z"></path><path fill="#451320" d="M2482.58,1456.08l-54.22,259.47,96.81,5.16s121.62-236.88,121.62-240.75-25.44-41.31-25.44-41.31Z"></path><path fill="#0b3336" d="M2786,1787.36c0,176.65-47.74,319.85-106.64,319.85s-106.65-143.2-106.65-319.85c0-142.55-43-274.89,0-316.21,10.27-9.88,95.28-3.64,106.65-3.64C2738.24,1467.51,2786,1610.71,2786,1787.36Z"></path><path fill="#0b3336" d="M2675.11,1796.09c0,134.59,45.06,264.14,8.3,313.47-12.26,16.44-96.58,11.46-110.72,11.46-56.57,0-102.43-145.48-102.43-324.93s45.86-324.94,102.43-324.94S2675.11,1616.63,2675.11,1796.09Z"></path><ellipse cx="2573.22" cy="1809.91" fill="#a8908e" rx="57.55" ry="203.25"></ellipse><ellipse cx="2573.22" cy="1809.91" fill="#e3d4d3" rx="36.26" ry="128.08"></ellipse><polygon fill="#feaac0" points="2598.76 1453.49 2660.72 1570.32 2773.67 1566.45 2707.84 1429.61 2491.61 1429.61 2482.57 1456.08 2598.76 1453.49"></polygon><polygon fill="#023240" points="3254.44 1473.5 3262.49 1630.34 3247.43 1632.23 3245.29 1471.25 3254.44 1473.5"></polygon><polygon fill="#023240" points="3271.91 1471.25 3277.83 1631.4 3292.71 1629.53 3281.03 1473.49 3271.91 1471.25"></polygon><polygon fill="#023240" points="3298.29 1471.25 3307.93 1630.57 3322.62 1628.72 3307.39 1473.48 3298.29 1471.25"></polygon><polygon fill="#023240" points="3324.44 1471.25 3337.72 1629.76 3352.23 1627.92 3333.5 1473.47 3324.44 1471.25"></polygon><polygon fill="#023240" points="3350.35 1471.25 3367.21 1628.95 3381.54 1627.12 3359.39 1473.46 3350.35 1471.25"></polygon><polygon fill="#023240" points="3376.03 1471.25 3396.39 1628.16 3410.55 1626.34 3385.04 1473.45 3376.03 1471.25"></polygon><polygon fill="#b53353" points="2979.57 1412.19 2960.21 1554.51 3119.96 1554.51 3132.23 1765.09 3197.89 1765.09 3215.32 1447.04 2979.57 1412.19"></polygon><polygon fill="#6b1e31" points="3405.57 1447.04 3215.32 1412.19 2979.57 1412.19 3215.32 1447.04 3405.57 1447.04"></polygon><polygon fill="#0b3336" points="3023.62 1538.53 3023.62 1258.25 3079.62 1258.25 3079.62 1543.21 3023.62 1538.53"></polygon><polygon fill="#1f527a" points="2745.36 1028.91 2601.8 1397.09 2567.73 1396.33 2717.34 1033.03 2745.36 1028.91"></polygon><polygon fill="#2c74ad" points="2810.71 1060.31 2808.27 1134.73 2705.06 1399.41 2671.38 1398.65 2810.71 1060.31"></polygon><ellipse cx="2943.75" cy="1926.29" fill="#0b3336" rx="93.91" ry="227.52"></ellipse><path fill="#0b3336" d="M3139.32,1916.62c0,125.65-43.78,227.52-97.79,227.52-9.3,0-85.06,15.08-93.59,9.43-41-27.13-4.19-133-4.19-237,0-102.1-44-185.39-4.2-214.2,9.19-6.64,91.86-13.32,102-13.32C3095.54,1689.1,3139.32,1791,3139.32,1916.62Z"></path><ellipse cx="2944.23" cy="1935.97" fill="#a8908e" rx="52.77" ry="142.32"></ellipse><ellipse cx="2944.23" cy="1935.97" fill="#0b3336" rx="18.79" ry="50.67"></ellipse><path fill="#0b3336" d="M3310.46 1260.94s41.77-17.2 41.77-20.66-1.88-19.36-1.88-19.36l-47.41 20zM3039.43 987.16s-32.71-87.81-59.86-103.49l21.3-32.92s58.55 73.35 60.36 136.41C3045 1003.35 3039.43 987.16 3039.43 987.16z"></path><path fill="#d2ebfd" d="M2932.13,518.67a120.62,120.62,0,0,0-30.25,3.84,129,129,0,0,0-160.05-66,44.42,44.42,0,1,0-44.11,26.9,128.89,128.89,0,0,0,16.33,201.76,121.44,121.44,0,1,0,198.57,72,120.06,120.06,0,1,0,19.51-238.52Z"></path><circle cx="2551.47" cy="480.25" r="35.48" fill="#d2ebfd" transform="rotate(-9.22 2550.754 480.165)"></circle><circle cx="2763.95" cy="296.76" r="46.76" fill="#d2ebfd"></circle><path fill="#d2ebfd" d="M2996.92,856.85s-24.13-99.33-5.73-147.11c-142.32,32.58-136.83,54.84-136.83,54.84l4.19,70.68s113.38,9.14,127,39.22C3001.84,868.18,2996.92,856.85,2996.92,856.85Z"></path><rect width="71.35" height="145.85" x="3226.94" y="1828.25" fill="#061d1f"></rect><rect width="71.35" height="145.85" x="3340.36" y="1828.25" fill="#061d1f"></rect><polygon fill="#fde81d" points="3245.34 1648.42 3245.34 1719.58 3312.14 1715.22 3309.41 1648.47 3245.34 1648.42"></polygon><polygon fill="#fde81d" points="3348.77 1645.52 3352.96 1721.68 3417.24 1718.08 3407.18 1645.52 3348.77 1645.52"></polygon><path fill="#fff" d="M3031.1,1539.16s-5.11,44.66,17.13,66.9,63.66,13.75,63.66,13.75l-5.16-39.53s-42.92-4-42.92-38.39A225.64,225.64,0,0,1,3031.1,1539.16Z"></path><polygon fill="#fff" points="2816.92 1697.13 2891.47 1697.13 2891.47 1726.28 2816.92 1730.15 2816.92 1697.13"></polygon><polygon fill="#fff" points="2821.53 1645.52 2896.07 1645.52 2896.07 1674.67 2821.53 1678.54 2821.53 1645.52"></polygon><rect width="89.72" height="61.32" x="2907.9" y="915.62" fill="#0b3336" rx="17.75"></rect><rect width="89.72" height="61.32" x="2491.59" y="1184.77" fill="#0b3336" rx="17.75"></rect><rect width="89.72" height="61.32" x="3108.02" y="915.62" fill="#0b3336" rx="17.75"></rect><path fill="#fff" d="M3579.7,724.62c-5.19,8-10.5,16.15-15.86,24.38a179.73,179.73,0,0,0-195.73,0l-15.86-24.38a208.79,208.79,0,0,1,227.45,0Z"></path><path fill="#fff" d="M3548 773.4l-15.82 24.41a121.68 121.68 0 00-132.42 0c-5.18-8-10.49-16.17-15.82-24.39a150.66 150.66 0 01164.06 0zM3516.37 822.22l-15.81 24.42a63.53 63.53 0 00-69.16 0c-4.94-7.64-10.25-15.83-15.82-24.43a92.62 92.62 0 01100.79 0zM3500.6 900.13a34.62 34.62 0 11-53.4-29.07 34.62 34.62 0 0153.4 29.07zM1083.94 2267.48l-15.85 24.38a179.73 179.73 0 00-195.73 0l-15.86-24.38a208.72 208.72 0 01227.44 0z"></path><path fill="#fff" d="M1052.26 2316.26l-15.83 24.41a121.63 121.63 0 00-132.42 0c-5.17-8-10.49-16.18-15.81-24.4a150.68 150.68 0 01164.06 0zM1020.62 2365.08c-5.56 8.58-10.87 16.79-15.82 24.41a63.56 63.56 0 00-69.16 0c-4.93-7.64-10.24-15.83-15.81-24.43a92.62 92.62 0 01100.79 0zM1004.85 2443A34.69 34.69 0 11989 2413.92 34.63 34.63 0 011004.85 2443z"></path><path fill="#7fc7fd" d="M5093.57,1799.71l.29,5.31a69.28,69.28,0,0,1-8.12-.48c-2.57-.39-2.81-1,.07-2,.5-.17,1.1-.34,1.8-.53A29.91,29.91,0,0,0,5093.57,1799.71Z"></path><path fill="#6fc0fd" d="M4248.76,1198.49c-163.65-113.7-395.65-109-541.12,28.45,161-105.7,373.73-105.87,546-25.18Z"></path><path fill="#d2ebfd" d="M2009.94 1119.41l0-.06h0zM2009.9 1119.36h0zM2010.07 1119.33v0l0 0 0 0 0 0zM2215.69 1241.22C2184.13 1161.53 2099 1102 2010 1119.35l0 .06v-.05h0c12.93-79.5-14.73-176.45-75.52-226 55.25 66.66 64.81 173.36 43.25 259.25l.09.08c103.45-30.41 183.6 7.86 239.85 93.57C2217.62 1246.3 2217 1244.53 2215.69 1241.22z"></path><polygon fill="#d2ebfd" points="2009.97 1119.36 2009.97 1119.35 2009.95 1119.36 2009.95 1119.36 2009.97 1119.36"></polygon><path fill="#69a31a" d="M5253.07,2971.06s-739.91-402.23-468.82-983.14c549.92,317.56,728.07,704.83,728.07,704.83S5351.6,2696.63,5253.07,2971.06Z"></path><path fill="#85b51d" d="M5292.56,2663.77c-15.44,1.28-5.6-853,447.34-949.29C5776.46,2339.41,5429,2652.43,5292.56,2663.77Z"></path><path fill="#c4dd5d" d="M5691.5 1782c-173.07 225-280.21 537.88-354.42 806.24 87.73-218.12 189.34-486.46 295.64-700 19.46-38.48 41.62-77.9 64.52-113.31zM5276.5 2890.73c-187.82-210-361.94-530-468.05-805 83.35 306.25 251.92 621.39 493.77 833.6C5302.22 2919.31 5293.1 2909 5276.5 2890.73z"></path><path fill="#588a16" d="M5216.06,2934.8s34.85-491.84,611.88-546.05C5982.85,2880.58,5216.06,2934.8,5216.06,2934.8Z"></path><path fill="#c4dd5d" d="M5795.14,2448.85c-111.92,182.66-340.57,327.83-524.87,403.65C5481.55,2802.09,5713,2651.43,5798.9,2443Z"></path><path fill="#69a31a" d="M5203.27,3078c-425.84-86.29-855.09-341-1013.19-763.72-2.85-8.28-5.41-16.62-7.9-25-3.26-12.69-22.91-7.31-19.64,5.42,5.9,21.3,13.84,42,22.25,62.43C4266.89,2552,4411,2714.34,4581.05,2837c24,2.13,48.84,10.54,51.21,34.9a1438.45,1438.45,0,0,0,149.05,84.33c8.31-2.1,15.82.12,22.79,5.21,29.72,26,70.56,35.1,106.2,51.26q72.54,28.16,147.41,49.75c21.58-7.66,46.46-6.06,56.84,15.56q41.43,10.71,83.31,19.6C5210.64,3100.32,5216.11,3080.69,5203.27,3078Z"></path><path fill="#69a31a" d="M4613.88 2792.73c10.63 31.48 39.74 65.86 72.12 60.52 46.67-9 60.88-72 57.27-115.16-1.28-68.19-68.33-155-122.49-71.73C4600.08 2702.23 4599.45 2753.86 4613.88 2792.73zM4819.7 2914c13.16 44.52 58.75 67 95.36 32.26 40-38.21 52-105.81 27.65-155.48-29-55.39-88.18-32.5-112 14.58C4813.34 2836.58 4808.06 2880.09 4819.7 2914zM4453.82 2623.42c2.23 34.59 34.33 87.11 70.53 52.17 32.38-34.1 62.26-128 55.51-174.64-11.39-54.71-75.5-19.52-95.41 11.08C4461.58 2541.22 4448.67 2586.65 4453.82 2623.42zM4325.77 2461.83c27.59 90.76 151.31-6.4 113.81-98.74-20.52-36.73-71.68-11.87-91.66 14.66C4329 2400.79 4318.83 2434 4325.77 2461.83zM4245 2331.14c38 6.22 73.46-32 80.11-66.67 1.82-12.32-1.93-23.77-2.26-36.2 3.64-54-47.36-54.15-79.83-25.36C4205.2 2232.17 4189.56 2316 4245 2331.14zM4098.37 2262c43.3 58.09 98.81 4.06 97.05-49.85-1.66-9.73-7.69-14.43-13.73-23-16.32-24.88-43.47-52.19-73.56-28.1C4079.7 2183.05 4077.57 2234.35 4098.37 2262zM4053.22 2412.12c11.25 39.7 60.09 60 98 48.74 27.71-7.31 50.67-34.73 37.13-61.46-11.84-20.73-32.58-36.71-53.31-46.16C4099.61 2354 4041.07 2362.48 4053.22 2412.12zM4262.78 2593.23c35.61-39.17 12.23-83.39-36.3-86-24.8-1.72-42.08 1.29-56.51 22.47-9.35 10.6-20.22 19.18-26.65 32.35-15.15 30 17.75 56.77 46.06 58.42C4214.82 2624 4246.71 2611.89 4262.78 2593.23zM4386.28 2665.64c-27.47-12.53-61.35-9.49-89.13 1.55-38 15.1-80.59 64.68-30 93.56 31.9 18.9 79.54 13.85 109.94-5.77C4413.28 2734 4429.84 2686 4386.28 2665.64zM4583.23 2837.17c-29.68-2.65-62.54 2.62-91 11.29-46 12.52-93.14 49.4-37.2 88.36C4567.43 3002.43 4709.5 2854 4583.23 2837.17zM4804.1 2961.42c-12-8.67-19.05-6.25-31.6-2.64-10.11-1.23-20.32-4.92-30.43-2.17-21.77 6.86-39.71 27.61-46.63 49.36-16.06 63.86 64.62 78.22 104.62 43.05 18.82-15.06 33.79-40.48 27.83-65C4820.14 2976.26 4813.1 2967.88 4804.1 2961.42zM5099.87 3062.6c-44-18.73-101.88 31.7-122.2 68.31-54.78 86.46 55.79 94.67 104.18 45.72C5111.38 3151.15 5140 3088.45 5099.87 3062.6zM5052.93 3027.9c102.33 59 133.31-122.47 38-165.89-47.65-34.11-82.27 10.56-85.49 58.07C5000.87 2959.11 5023.18 3009.74 5052.93 3027.9zM5006.16 3310.31c-512.34 73-1093-53.78-1435.91-464.88a42 42 0 01-14.1 14.76c140.41 166.71 324.92 293.91 527.65 372.89q27.21 10.73 54.83 20.37a89.17 89.17 0 0125 1.65c11.57 2.51 23.05 7.72 30.75 16.67 250.38 75.67 516.52 94.93 776.08 64.22 13.61-1.68 27.68-3.07 41.09-6C5024.45 3327.61 5019 3308 5006.16 3310.31z"></path><path fill="#69a31a" d="M4791.73 3349c-33.28 1.18-63.14 29.39-68 62.08-6.09 39.72 34.88 62 69.81 52.48 37.36-7.93 77.54-50.39 60.32-89.35C4842.4 3355.64 4810.87 3349.3 4791.73 3349zM4858.92 3274.93c1.11-37.63 16.46-38.9-17.19-68-30.75-28.37-77.62-22.31-86.72 22.42-10.46 42.75 30 100.47 77.36 90.22 5.42-1.47 10.13-3.57 14-7.12C4854.19 3301.56 4861.56 3288.8 4858.92 3274.93zM4460.46 3248.62c58.55 113.74 152.68 43.74 95.28-57.91-11.75-21.3-30.69-35.38-52.88-43.37C4446.44 3127.66 4442 3214.25 4460.46 3248.62zM4509.43 3334.62c-72.24-3.86-142.94 89.57-119.65 158 28.4 56.23 90.25-8.06 112.95-38.77C4526.2 3423.73 4571.16 3346.57 4509.43 3334.62zM4179.07 3066.48c-21.67 30.86-19.56 94.6 4.12 123.95 22 32.21 60.82 28.62 78.57-5.19 19.13-30.89 17.2-89.24-3.94-118.79C4237.87 3033.91 4198.93 3032.86 4179.07 3066.48zM4190.69 3268c-54.5-40.28-136.55 6.87-154.43 65.77-7.37 22.56-6.13 52.51 16.15 63.51 23.78 10.37 50.09-4.64 70.8-16.72C4151.64 3362.76 4230.12 3302.65 4190.69 3268zM3912.65 3105.51l21.07 21.4a37.4 37.4 0 002-44.07l21.07 21.39c47.62-35.15 45.9-158.65-20.33-169.61C3865.94 2940.32 3861 3071 3912.65 3105.51zM3854.74 3136c-32.39-38.23-99.83-28.37-132 5.55-42.12 45.15-1 86.2 50.65 84.26C3816 3227.39 3886.15 3183.76 3854.74 3136zM3708.18 2984.9c40.35 30.27 85.1-19.39 84.74-60.5 4.75-52-50-105.7-92.61-56.21C3673.82 2900.5 3674.39 2957.84 3708.18 2984.9zM3663.81 2977.73c-29.33-27.65-79.13-34.13-116.58-22.74-34.14 8.36-72.4 45.07-43.65 77.61 33.1 32.55 96.28 34.12 136.85 20.33C3677.69 3041.39 3696.65 3008.27 3663.81 2977.73zM3570.25 2845.43c22-41.87-.83-98-41.8-118.85-62.16-30.73-85.54 44.55-59.49 91.06C3485 2855 3543.23 2889.1 3570.25 2845.43z"></path><path fill="#588a16" d="M5056.79,3257.68s-200.41-24.69-171.37,326.76c278.84,220.75,268.67-432.77,268.67-432.77Z"></path><path fill="#c4dd5d" d="M5059.88,3307.16c-.61-17.06-2.56-34.13-6.48-49-9.08,104.79-53,216.78-117.15,299.16C5014.42,3506.16,5065.26,3401.45,5059.88,3307.16Z"></path><path fill="#69a31a" d="M5152.16,3132.3s141.35,381.47,586.71,429.87c-3.87-323.37-222.68-697.08-524.75-637.06C5138.6,3027.74,5152.16,3132.3,5152.16,3132.3Z"></path><path fill="#c4dd5d" d="M5721.18,3531.2C5652,3273.29,5437.12,3054,5167.65,3033.55c257.64,53.3,457.7,264.3,555.73,505.39Z"></path><path fill="#ceed35" d="M405.19 2355.83s129.26 34.85 168.47 77c59.54 5.81 77 34.85 84.23 59.54s45 14.52 69.71 24.69 34.85 47.92 36.3 53.73S925.1 2646.28 944 2681.13s45 27.6 69.71 40.67 196.06 178.63 222.2 175.72 174.27 82.78 184.44 107.47 235.26 161.2 296.26 187.34 90 53.73 101.66 82.78 108.92 65.35 127.79 77 313.69 174.27 313.69 174.27l94.4 52.28s-161.45 4.1-191.09 1.33C2070.94 3517.64 405.19 2355.83 405.19 2355.83zM880.57 2288.06s863.61 359.67 888.3 371.29 553.31 232.36 621.57 258.5 87.13 34.86 87.13 34.86 69.71 29 161.2 61 576.55 273 646.26 289 813.75 349.19 830.53 350.48 35.5-1.29 35.5-1.29 71-11.62 60.68-16.13-71 0-103.92-27.11-83.27-52.28-103.27-54.22-47.77 5.16-69.71-13.56-189.12-67.77-204-79.39-39.38-36.14-62.61-42.6-188.47-74.87-240.11-92.94-54.22-16.78-73.58-23.88-211.71-67.13-224.62-85.2-48.41-32.27-54.86-32.27-31 10.32-40.67-9.69-11.61-33.56-24.52-35.5 1.93 13.56-40.67-1.29-191.69-86.49-216.87-100-443.26-172.5-443.26-172.5S937.69 2292.9 880.57 2288.06z"></path><rect width="2100.94" height="1393.99" x="1134.23" y="2356.01" fill="#a0d5fd" opacity=".4" rx="204.12"></rect><rect width="1250.22" height="1957.18" x="1559.59" y="2074.42" fill="#fff" opacity=".8" rx="132.24" transform="rotate(90 2184.7 3053.01)"></rect><path fill="#93c74b" d="M1837.13,2553.82a14,14,0,0,0-14,14h0a14,14,0,0,0,14,14h136.69v-28.09Z"></path><path fill="#a0d5fd" d="M2091.75,2553.82H1973.82v28.09h117.93a14,14,0,0,0,14-14h0A14,14,0,0,0,2091.75,2553.82Z" opacity=".4"></path><path fill="#93c74b" d="M1837.13,2619.35a14,14,0,0,0-14,14h0a14,14,0,0,0,14,14.05h196.36v-28.09Z"></path><path fill="#a0d5fd" d="M2091.75 2619.35h-58.26v28.09h58.26a14 14 0 0014-14.05h0A14 14 0 002091.75 2619.35zM2091.75 2684.87h-142V2713h142a14 14 0 0014-14h0A14 14 0 002091.75 2684.87z" opacity=".4"></path><path fill="#93c74b" d="M1837.13 2684.87a14 14 0 00-14 14.05h0a14 14 0 0014 14h112.58v-28.09zM1347.56 3452.29a12.42 12.42 0 00-12.43 12.43h0a12.42 12.42 0 0012.43 12.43h174.59v-24.86z"></path><path fill="#a0d5fd" d="M1573,3452.29h-50.82v24.86H1573a12.43,12.43,0,0,0,12.43-12.43h0A12.43,12.43,0,0,0,1573,3452.29Z" opacity=".4"></path><path fill="#93c74b" d="M1347.56,3510.3a12.42,12.42,0,0,0-12.43,12.43h0a12.42,12.42,0,0,0,12.43,12.43h136.5V3510.3Z"></path><path fill="#a0d5fd" d="M1573 3510.3h-88.91v24.86H1573a12.43 12.43 0 0012.43-12.43h0A12.43 12.43 0 001573 3510.3zM1573 3568.31h-36.62v24.86H1573a12.43 12.43 0 0012.43-12.43h0A12.43 12.43 0 001573 3568.31z" opacity=".4"></path><path fill="#93c74b" d="M1347.56 3568.31a12.42 12.42 0 00-12.43 12.43h0a12.42 12.42 0 0012.43 12.43h188.79v-24.86zM1820 3452.29a12.42 12.42 0 00-12.43 12.43h0a12.42 12.42 0 0012.43 12.43H2014.3v-24.86z"></path><path fill="#a0d5fd" d="M2045.44,3452.29H2014.3v24.86h31.14a12.43,12.43,0,0,0,12.43-12.43h0A12.43,12.43,0,0,0,2045.44,3452.29Z" opacity=".4"></path><path fill="#93c74b" d="M1820,3510.3a12.42,12.42,0,0,0-12.43,12.43h0a12.42,12.42,0,0,0,12.43,12.43h173.83V3510.3Z"></path><path fill="#a0d5fd" d="M2045.44 3510.3h-51.58v24.86h51.58a12.43 12.43 0 0012.43-12.43h0A12.43 12.43 0 002045.44 3510.3zM2045.44 3568.31H1905.87v24.86h139.57a12.43 12.43 0 0012.43-12.43h0A12.43 12.43 0 002045.44 3568.31z" opacity=".4"></path><path fill="#93c74b" d="M1820 3568.31a12.42 12.42 0 00-12.43 12.43h0a12.42 12.42 0 0012.43 12.43h85.84v-24.86zM2292.5 3452.29a12.42 12.42 0 00-12.43 12.43h0a12.42 12.42 0 0012.43 12.43H2471v-24.86z"></path><path fill="#a0d5fd" d="M2517.9,3452.29H2471v24.86h46.94a12.43,12.43,0,0,0,12.44-12.43h0A12.43,12.43,0,0,0,2517.9,3452.29Z" opacity=".4"></path><path fill="#93c74b" d="M2292.5,3510.3a12.42,12.42,0,0,0-12.43,12.43h0a12.42,12.42,0,0,0,12.43,12.43h73.14V3510.3Z"></path><path fill="#a0d5fd" d="M2517.9 3510.3H2365.64v24.86H2517.9a12.43 12.43 0 0012.44-12.43h0A12.43 12.43 0 002517.9 3510.3zM2517.9 3568.31h-60.5v24.86h60.5a12.43 12.43 0 0012.44-12.43h0A12.43 12.43 0 002517.9 3568.31z" opacity=".4"></path><path fill="#93c74b" d="M2292.5 3568.31a12.42 12.42 0 00-12.43 12.43h0a12.42 12.42 0 0012.43 12.43h164.9v-24.86zM2765 3452.29a12.43 12.43 0 00-12.44 12.43h0a12.43 12.43 0 0012.44 12.43h63.08v-24.86z"></path><path fill="#a0d5fd" d="M2990.37,3452.29H2828.05v24.86h162.32a12.43,12.43,0,0,0,12.44-12.43h0A12.43,12.43,0,0,0,2990.37,3452.29Z" opacity=".4"></path><path fill="#93c74b" d="M2765,3510.3a12.43,12.43,0,0,0-12.44,12.43h0a12.43,12.43,0,0,0,12.44,12.43h97.94V3510.3Z"></path><path fill="#a0d5fd" d="M2990.37 3510.3H2862.91v24.86h127.46a12.43 12.43 0 0012.44-12.43h0A12.43 12.43 0 002990.37 3510.3zM2990.37 3568.31H2935v24.86h55.33a12.43 12.43 0 0012.44-12.43h0A12.43 12.43 0 002990.37 3568.31z" opacity=".4"></path><path fill="#93c74b" d="M2765 3568.31a12.43 12.43 0 00-12.44 12.43h0a12.43 12.43 0 0012.44 12.43H2935v-24.86zM3008.11 2627.84c-71.41-18.58-151.87 2.91-204.51 54.61-39.24 38.55-66.71 94.18-119 111.19-66.79 21.71-140.73-31.38-207.74-10.36-54.19 17-82.65 75.11-126.21 111.53-44.9 37.53-108.75 51.07-165 35-35.28-10.07-66.94-30.75-102.52-39.74-67.89-17.14-140.8 11.5-193.66 57.42-31.13 27-56.61 59.44-79.59 93.81H3008.11z"></path><path fill="#fde81d" d="M1712,2651.81a112.66,112.66,0,1,1-36.56-83.09A112.18,112.18,0,0,1,1712,2651.81Z"></path><path fill="#19767b" d="M1712,2651.81a112.18,112.18,0,0,1-18.69,62.16l-90-63.34,72.13-81.91A112.4,112.4,0,0,1,1712,2651.81Z"></path><path fill="#fde81d" d="M1712,2931.52a112.59,112.59,0,1,1-6-36.33A112.68,112.68,0,0,1,1712,2931.52Z"></path><path fill="#19767b" d="M1706,2895.19l-106.7,36.33,44.25-103.67A113,113,0,0,1,1706,2895.19Z"></path><rect width="69.71" height="36.31" x="1851.65" y="2829.27" fill="#19767b" rx="18.15"></rect><rect width="69.71" height="36.31" x="2332.35" y="2758.1" fill="#19767b" rx="18.15"></rect><rect width="69.71" height="36.31" x="2727.36" y="2631.76" fill="#19767b" rx="18.15"></rect><rect width="113.28" height="27.59" x="1847.29" y="3081.96" fill="#93c74b"></rect><rect width="113.28" height="27.59" x="2314.92" y="3081.96" fill="#93c74b"></rect><rect width="113.28" height="27.59" x="2782.55" y="3081.96" fill="#93c74b"></rect><circle cx="2771.32" cy="2513.55" r="16.37" fill="#7fc7fd"></circle><circle cx="2879.85" cy="2513.55" r="16.37" fill="#7fc7fd"></circle><circle cx="2988.37" cy="2513.55" r="16.37" fill="#7fc7fd"></circle><circle cx="2412.85" cy="3284.22" r="118.81" fill="#fff" stroke="#93c74b" stroke-miterlimit="10" stroke-width="5.95"></circle><circle cx="2412.85" cy="3284.22" r="97.24" fill="#daeefd"></circle><path fill="#75bee9" d="M2450,3306.13a37.13,37.13,0,1,1-74.25,0c0-20.51,37.12-75.05,37.12-75.05S2450,3285.62,2450,3306.13Z"></path><circle cx="1460.89" cy="3284.22" r="118.81" fill="#daeefd" stroke="#93c74b" stroke-miterlimit="10" stroke-width="5.95"></circle><circle cx="1460.89" cy="3284.22" r="97.24" fill="#fff"></circle><path fill="#75bee9" d="M1485.06,3275.49c-.7.29-1.37.6-2,.94.06-.59.1-1.2.12-1.8.61-19.16-19.65-42.56-19.65-42.56s-21.24,22.09-21.85,41.25a27.87,27.87,0,0,0,.31,5,28.59,28.59,0,0,0-5.22-2.85c-17.72-7.31-40,6-40,6s6.45,25.11,24.17,32.42c16.54,6.82,37.06-4.29,39.71-5.79.44.38.69.58.69.58l.4-.29c4.15,2.27,23.46,12,39.19,5.5,17.72-7.31,24.17-32.42,24.17-32.42S1502.78,3268.18,1485.06,3275.49Z"></path><circle cx="2888.84" cy="3284.22" r="118.81" fill="#fff" stroke="#93c74b" stroke-miterlimit="10" stroke-width="5.95"></circle><circle cx="2888.84" cy="3284.22" r="97.24" fill="#daeefd"></circle><path fill="#fff" d="M2882.05,3305v-72.62a13.68,13.68,0,0,0-13.68-13.69h0a13.69,13.69,0,0,0-13.69,13.69V3305a24.44,24.44,0,1,0,38.13,20.25C2892.81,3316.85,2888.54,3308.17,2882.05,3305Z"></path><rect width="35.93" height="11.36" x="2897.82" y="3253.79" fill="#6dbffd" rx="4.66"></rect><rect width="35.93" height="11.36" x="2897.82" y="3278.54" fill="#6dbffd" rx="4.66"></rect><path fill="#52a756" d="M2874,3312.4v-30h-11.35v30a14.67,14.67,0,1,0,11.35,0Z"></path><path fill="#8ac6e9" d="M2874,3242.24a5.68,5.68,0,1,0-11.35,0v40.13H2874Z"></path><circle cx="1936.87" cy="3284.22" r="118.81" fill="#fff" stroke="#93c74b" stroke-miterlimit="10" stroke-width="5.95"></circle><circle cx="1936.87" cy="3284.22" r="97.24" fill="#daeefd"></circle><circle cx="1936.87" cy="3284.22" r="26.25" fill="#fe4775"></circle><path fill="#fe4775" d="M1966.72 3256.75l9.51-9.51c2.57-2.56-1.42-6.55-4-4l-9.5 9.51C1960.17 3255.33 1964.15 3259.32 1966.72 3256.75zM1949 3245.53l3.48-13c.94-3.51-4.49-5-5.43-1.5l-3.48 13C1942.61 3247.54 1948 3249 1949 3245.53zM1922.57 3246.12c.94 3.5 6.38 2 5.43-1.5l-3.48-13c-.93-3.5-6.37-2-5.43 1.5zM1905.42 3258.36c2.57 2.57 6.55-1.42 4-4l-9.51-9.5c-2.57-2.57-6.56 1.41-4 4zM1883.7 3274.06l13 3.48c3.51.94 5-4.49 1.5-5.43l-13-3.48C1881.69 3267.69 1880.19 3273.13 1883.7 3274.06zM1897.27 3293.09l-13 3.48c-3.5.94-2 6.37 1.49 5.43l13-3.48C1902.27 3297.58 1900.79 3292.15 1897.27 3293.09zM1907 3311.69l-9.51 9.5c-2.57 2.57 1.42 6.56 4 4l9.5-9.51C1913.58 3313.1 1909.6 3309.12 1907 3311.69zM1924.77 3322.91l-3.48 13c-.94 3.5 4.49 5 5.43 1.5l3.48-13C1931.14 3320.9 1925.7 3319.4 1924.77 3322.91zM1951.18 3322.32c-.94-3.5-6.38-2-5.44 1.5l3.48 13c.94 3.5 6.38 2 5.44-1.5zM1968.33 3310.08c-2.57-2.57-6.56 1.42-4 4l9.51 9.51c2.57 2.57 6.55-1.41 4-4zM1990.05 3294.37l-13-3.48c-3.5-.94-5 4.5-1.49 5.44l13 3.48C1992.06 3300.75 1993.56 3295.31 1990.05 3294.37zM1976.48 3275.35l13-3.48c3.5-.94 2-6.38-1.5-5.43l-13 3.47C1971.48 3270.85 1973 3276.29 1976.48 3275.35z"></path><rect width="116.18" height="34.85" x="1346.26" y="2717.93" fill="#19767b" rx="17.43"></rect><rect width="116.18" height="34.85" x="1346.26" y="3003.21" fill="#19767b" rx="17.43"></rect></svg>