<?xml version="1.0" encoding="utf-8"?>
<!-- Generator: Adobe Illustrator 27.5.0, SVG Export Plug-In . SVG Version: 6.00 Build 0)  -->
<svg version="1.1" xmlns="http://www.w3.org/2000/svg" xmlns:xlink="http://www.w3.org/1999/xlink" x="0px" y="0px"
	 viewBox="0 0 750 500" style="enable-background:new 0 0 750 500;" xml:space="preserve">
<g id="BACKGROUND">
	<rect y="-0.005" style="fill:#F9ECD4;" width="750" height="500"/>
</g>
<g id="OBJECTS">
	<g>
		<g>
			<path style="fill:#00AAA6;" d="M426.618,268.07c-48.288-47.418-72.509,21.094-142.38-53.196
				c-70.29-74.736-105.917,69.566-165.111,19.595C63.472,187.485,6.601,259.314,0,268.07H426.618z"/>
			<path style="fill:#03726C;" d="M750,221.595c-45.029,27.473-82.493,47.99-147.961,0.319
				c-50.146-36.514-136.037,45.788-136.037,45.788L750,271.166V221.595z"/>
		</g>
		<g>
			<rect y="268.115" style="fill:#52DBD1;" width="750" height="132.97"/>
			<g>
				<g>
					<polygon style="fill:#52DBD1;" points="656.518,271.166 635.509,188.548 614.499,271.166 					"/>
					<polygon style="fill:#52DBD1;" points="481.309,271.166 469.721,225.599 458.133,271.166 					"/>
					<polygon style="fill:#52DBD1;" points="705.758,271.166 689.573,207.518 673.387,271.166 					"/>
					<polygon style="fill:#52DBD1;" points="576.569,271.166 564.846,225.066 553.122,271.166 					"/>
				</g>
				<g>
					<polygon style="fill:#52DBD1;" points="286.233,271.166 265.224,210.633 244.214,271.166 					"/>
					<polygon style="fill:#52DBD1;" points="155.197,271.166 139.012,217.711 122.826,271.166 					"/>
					<polygon style="fill:#52DBD1;" points="93.473,271.166 81.75,237.389 70.026,271.166 					"/>
				</g>
			</g>
		</g>
		<g>
			<path style="fill:#FFFFFF;" d="M256.454,127.02c-2.686-17.18-20.042-30.439-41.06-30.439c-7.04,0-13.668,1.49-19.474,4.114
				c-4.481-18.087-19.752-31.408-37.904-31.408c-16.648,0-30.873,11.203-36.573,27.012c-2.052-0.738-4.205-1.134-6.427-1.134
				c-9.584,0-17.92,7.312-22.195,18.082c-3.463-1.428-7.276-2.219-11.281-2.219c-11.521,0-21.453,6.545-26.04,15.991H256.454z"/>
			<path style="fill:#FFFFFF;" d="M694.5,157.546c-2.02-12.917-15.068-22.885-30.87-22.885c-5.293,0-10.276,1.12-14.641,3.093
				c-3.369-13.599-14.85-23.613-28.498-23.613c-12.516,0-23.211,8.423-27.497,20.309c-1.543-0.555-3.162-0.853-4.832-0.853
				c-7.205,0-13.473,5.497-16.687,13.595c-2.604-1.074-5.471-1.668-8.481-1.668c-8.662,0-16.129,4.921-19.577,12.022H694.5z"/>
			<path style="fill:#FFFFFF;" d="M537.229,74.255c-1.677-10.726-12.512-19.003-25.634-19.003c-4.395,0-8.533,0.93-12.157,2.568
				c-2.797-11.292-12.331-19.608-23.663-19.608c-10.393,0-19.274,6.994-22.833,16.864c-1.281-0.461-2.625-0.708-4.012-0.708
				c-5.983,0-11.187,4.565-13.857,11.289c-2.162-0.892-4.543-1.385-7.043-1.385c-7.193,0-13.393,4.086-16.256,9.983H537.229z"/>
			<circle style="fill:#F4B942;" cx="321.229" cy="76.919" r="39.484"/>
		</g>
		<g>
			<g>
				<g>
					<rect x="499.178" y="276.661" style="fill:#F9ECD4;" width="3.008" height="35.528"/>
					<rect x="516.149" y="276.661" style="fill:#F9ECD4;" width="3.008" height="35.528"/>
					<rect x="533.121" y="276.661" style="fill:#F9ECD4;" width="3.008" height="35.528"/>
					<rect x="550.093" y="276.661" style="fill:#F9ECD4;" width="3.008" height="35.528"/>
					<rect x="567.064" y="276.661" style="fill:#F9ECD4;" width="3.008" height="35.528"/>
					<rect x="584.036" y="276.661" style="fill:#F9ECD4;" width="3.008" height="35.528"/>
					<rect x="601.007" y="276.661" style="fill:#F9ECD4;" width="3.008" height="35.528"/>
					<rect x="617.979" y="276.661" style="fill:#F9ECD4;" width="3.008" height="35.528"/>
					<rect x="634.95" y="276.661" style="fill:#F9ECD4;" width="3.008" height="35.528"/>
					<rect x="651.922" y="276.661" style="fill:#F9ECD4;" width="3.008" height="35.528"/>
					<rect x="668.893" y="276.661" style="fill:#F9ECD4;" width="3.008" height="35.528"/>
					<rect x="685.865" y="276.661" style="fill:#F9ECD4;" width="3.008" height="35.528"/>
					<rect x="702.836" y="276.661" style="fill:#F9ECD4;" width="3.008" height="35.528"/>
					<rect x="719.808" y="276.661" style="fill:#F9ECD4;" width="3.008" height="35.528"/>
					<rect x="736.78" y="276.661" style="fill:#F9ECD4;" width="3.008" height="35.528"/>
				</g>
				<g>
					<rect x="492.767" y="299.482" style="fill:#F9ECD4;" width="257.233" height="3.486"/>
					<rect x="492.767" y="284.047" style="fill:#F9ECD4;" width="257.233" height="3.486"/>
				</g>
			</g>
			<g>
				<g>
					<polygon style="fill:none;" points="65.512,275.934 65.512,275.934 57.462,269.426 					"/>
					<polygon style="fill:#0E5289;" points="45.188,259.501 45.188,259.501 45.187,259.501 24.862,275.934 65.512,275.934 
						57.462,269.426 					"/>
					<polygon style="fill:#F9ECD4;" points="24.862,320.825 45.187,320.825 65.512,320.825 65.512,275.934 24.862,275.934 					"/>
					<polygon style="fill:#092D51;" points="33.638,320.825 42.983,320.825 52.329,320.825 52.329,300.183 33.638,300.183 					"/>
					<polygon style="fill:#092D51;" points="127.153,259.501 45.188,259.501 57.462,269.426 65.512,275.934 147.477,275.934 					
						"/>
					<polygon style="fill:#F4B942;" points="65.512,275.934 65.512,275.934 65.512,320.826 147.478,320.826 147.478,275.934 
						147.477,275.934 					"/>
					<g>
						<rect x="74.131" y="285.754" style="fill:#092D51;" width="29.259" height="14.028"/>
						<rect x="111.206" y="285.754" style="fill:#092D51;" width="29.259" height="14.028"/>
					</g>
				</g>
				<g>
					<polygon style="fill:#F4B942;" points="192.068,217.833 173.574,229.669 173.574,320.66 192.068,320.66 210.562,320.66 
						210.562,229.669 					"/>
					<circle style="fill:#0E5289;" cx="192.068" cy="216.907" r="6.736"/>
					<rect x="183.068" y="278.122" style="fill:#092D51;" width="18" height="42.537"/>
					<path style="fill:#0E5289;" d="M195.24,217.107l10.491-3.409l3.103,9.551l22.255-7.231l-3.103-9.551l-1.029-3.166
						l-22.255,7.231l-10.668,3.466v-11.031h10.043v-23.401h-10.043h-3.329v23.401v11.217l-10.491-3.409l3.103-9.551l-22.255-7.231
						l-3.103,9.551l-1.029,3.166l22.255,7.231l10.668,3.466l-6.484,8.924l-8.125-5.903l-13.754,18.932l8.125,5.903l2.693,1.957
						l13.755-18.932l6.593-9.075l6.484,8.924l-8.125,5.903l13.755,18.932l8.125-5.903l2.693-1.957l-13.755-18.932L195.24,217.107z"
						/>
					<path style="fill:#F4B942;" d="M194.554,216.907c0,1.373-1.113,2.486-2.486,2.486c-1.373,0-2.486-1.113-2.486-2.486
						s1.113-2.486,2.486-2.486C193.441,214.421,194.554,215.534,194.554,216.907z"/>
				</g>
			</g>
		</g>
		<g>
			<g>
				<rect y="320.789" style="fill:#9AF4CD;" width="750" height="80.296"/>
				<path style="fill:#31C4BC;" d="M750,401.085v-88.961c-76.875-0.65-200.538-1.249-274.044,0.703
					c-82.455,2.189-218.399,58.404-285.1,88.259H750z"/>
			</g>
			<path style="fill:#03726C;" d="M140.117,401.084c-2.613-12.873-13.993-22.562-27.638-22.562c-8.475,0-16.071,3.743-21.241,9.661
				c-8.306-12.612-22.584-20.942-38.814-20.942c-2.55,0-5.049,0.214-7.487,0.609C38.29,349.408,20.699,336.199,0,336.059v65.026
				H140.117z"/>
		</g>
		<g>
			<g>
				<g>
					<rect x="185.543" y="350.826" style="fill:#F4B942;" width="56.303" height="50.259"/>
					
						<rect x="241.847" y="350.826" transform="matrix(-1 -1.224647e-16 1.224647e-16 -1 502.347 751.9114)" style="fill:#FF9C39;" width="18.654" height="50.259"/>
					<rect x="196.141" y="365.582" style="fill:#FF9C39;" width="5.419" height="1.991"/>
					<rect x="212.62" y="378.854" style="fill:#FF9C39;" width="4.313" height="2.986"/>
					<rect x="228.989" y="372.771" style="fill:#FF9C39;" width="8.516" height="1.77"/>
					<rect x="231.643" y="362.485" style="fill:#FF9C39;" width="2.986" height="0.553"/>
					<rect x="218.482" y="363.37" style="fill:#FF9C39;" width="1.438" height="1.659"/>
					<rect x="226.445" y="387.812" style="fill:#FF9C39;" width="3.871" height="2.433"/>
					<rect x="198.574" y="392.458" style="fill:#FF9C39;" width="9.843" height="1.659"/>
					<rect x="198.906" y="377.637" style="fill:#FF9C39;" width="3.428" height="2.654"/>
					<rect x="200.676" y="356.181" style="fill:#FF9C39;" width="3.982" height="1.327"/>
					<rect x="187.625" y="375.094" style="fill:#FF9C39;" width="4.866" height="1.88"/>
					<rect x="219.699" y="392.347" style="fill:#FF9C39;" width="3.429" height="2.875"/>
					<rect x="218.814" y="355.739" style="fill:#FF9C39;" width="2.322" height="1.88"/>
					<rect x="233.523" y="380.181" style="fill:#FF9C39;" width="2.765" height="2.654"/>
					<rect x="233.745" y="394.891" style="fill:#FF9C39;" width="2.876" height="1.88"/>
					<rect x="212.067" y="395.997" style="fill:#FF9C39;" width="3.76" height="1.991"/>
					<rect x="190.832" y="396.882" style="fill:#FF9C39;" width="1.88" height="1.327"/>
					<rect x="197.358" y="386.596" style="fill:#FF9C39;" width="0.995" height="1.659"/>
					<rect x="190.722" y="359.941" style="fill:#FF9C39;" width="0.885" height="1.77"/>
					<rect x="205.542" y="360.937" style="fill:#FF9C39;" width="1.548" height="1.438"/>
					<rect x="217.155" y="369.342" style="fill:#FF9C39;" width="3.981" height="2.212"/>
					<rect x="229.431" y="356.292" style="fill:#FF9C39;" width="3.65" height="0.442"/>
					<rect x="204.878" y="370.338" style="fill:#FF9C39;" width="1.438" height="1.327"/>
					<rect x="189.284" y="354.854" style="fill:#FF9C39;" width="2.433" height="0.774"/>
					<rect x="250.417" y="368.485" style="fill:#F4B942;" width="4.728" height="1.908"/>
					<rect x="243.975" y="378.356" style="fill:#F4B942;" width="3.429" height="3.429"/>
					<rect x="252.989" y="386.762" style="fill:#F4B942;" width="2.323" height="2.323"/>
					<rect x="251.496" y="362.264" style="fill:#F4B942;" width="2.212" height="1.493"/>
					<rect x="248.178" y="356.347" style="fill:#F4B942;" width="2.875" height="0.387"/>
					<rect x="255.311" y="353.416" style="fill:#F4B942;" width="1.936" height="1.714"/>
					<rect x="248.399" y="394.559" style="fill:#F4B942;" width="3.76" height="1.88"/>
					<rect x="252.878" y="380.126" style="fill:#F4B942;" width="1.106" height="0.664"/>
					<rect x="245.192" y="362.485" style="fill:#F4B942;" width="1.106" height="1.383"/>
				</g>
				<g>
					<rect x="455.902" y="357.951" style="fill:#F4B942;" width="56.303" height="43.134"/>
					
						<rect x="512.206" y="357.951" transform="matrix(-1 -1.224647e-16 1.224647e-16 -1 1043.0648 759.0357)" style="fill:#FF9C39;" width="18.654" height="43.134"/>
					<rect x="466.5" y="370.615" style="fill:#FF9C39;" width="5.419" height="1.709"/>
					<rect x="482.979" y="382.005" style="fill:#FF9C39;" width="4.313" height="2.563"/>
					<rect x="499.348" y="376.785" style="fill:#FF9C39;" width="8.516" height="1.519"/>
					<rect x="502.002" y="367.957" style="fill:#FF9C39;" width="2.986" height="0.475"/>
					<rect x="488.841" y="368.716" style="fill:#FF9C39;" width="1.438" height="1.424"/>
					<rect x="496.804" y="389.694" style="fill:#FF9C39;" width="3.871" height="2.088"/>
					<rect x="468.933" y="393.681" style="fill:#FF9C39;" width="9.843" height="1.424"/>
					<rect x="469.265" y="380.961" style="fill:#FF9C39;" width="3.428" height="2.278"/>
					<rect x="471.034" y="362.546" style="fill:#FF9C39;" width="3.982" height="1.139"/>
					<rect x="457.984" y="378.778" style="fill:#FF9C39;" width="4.866" height="1.614"/>
					<rect x="490.057" y="393.586" style="fill:#FF9C39;" width="3.429" height="2.468"/>
					<rect x="489.173" y="362.167" style="fill:#FF9C39;" width="2.322" height="1.614"/>
					<rect x="503.882" y="383.144" style="fill:#FF9C39;" width="2.765" height="2.278"/>
					<rect x="504.104" y="395.769" style="fill:#FF9C39;" width="2.876" height="1.614"/>
					<rect x="482.426" y="396.718" style="fill:#FF9C39;" width="3.76" height="1.709"/>
					<rect x="461.191" y="397.477" style="fill:#FF9C39;" width="1.88" height="1.139"/>
					<rect x="467.717" y="388.65" style="fill:#FF9C39;" width="0.995" height="1.424"/>
					<rect x="461.081" y="365.774" style="fill:#FF9C39;" width="0.885" height="1.519"/>
					<rect x="475.901" y="366.628" style="fill:#FF9C39;" width="1.548" height="1.234"/>
					<rect x="487.514" y="373.842" style="fill:#FF9C39;" width="3.981" height="1.898"/>
					<rect x="499.79" y="362.641" style="fill:#FF9C39;" width="3.65" height="0.38"/>
					<rect x="475.237" y="374.696" style="fill:#FF9C39;" width="1.438" height="1.139"/>
					<rect x="459.643" y="361.407" style="fill:#FF9C39;" width="2.433" height="0.664"/>
					<rect x="520.776" y="373.106" style="fill:#F4B942;" width="4.728" height="1.637"/>
					<rect x="514.334" y="381.578" style="fill:#F4B942;" width="3.429" height="2.943"/>
					<rect x="523.348" y="388.792" style="fill:#F4B942;" width="2.323" height="1.993"/>
					<rect x="521.855" y="367.767" style="fill:#F4B942;" width="2.212" height="1.281"/>
					<rect x="518.537" y="362.689" style="fill:#F4B942;" width="2.875" height="0.332"/>
					<rect x="525.67" y="360.173" style="fill:#F4B942;" width="1.935" height="1.471"/>
					<rect x="518.758" y="395.484" style="fill:#F4B942;" width="3.76" height="1.614"/>
					<rect x="523.237" y="383.097" style="fill:#F4B942;" width="1.106" height="0.57"/>
					<rect x="515.551" y="367.957" style="fill:#F4B942;" width="1.106" height="1.186"/>
				</g>
				<g>
					<rect x="467.792" y="319.02" style="fill:#F4B942;" width="39.363" height="38.562"/>
					<rect x="467.792" y="353.842" style="fill:#FF9C39;" width="39.363" height="3.74"/>
					
						<rect x="507.155" y="319.02" transform="matrix(-1 -1.224647e-16 1.224647e-16 -1 1027.3502 676.602)" style="fill:#FF9C39;" width="13.041" height="38.562"/>
					<rect x="475.201" y="330.342" style="fill:#FF9C39;" width="3.789" height="1.528"/>
					<rect x="486.722" y="340.525" style="fill:#FF9C39;" width="3.016" height="2.291"/>
					<rect x="498.165" y="335.858" style="fill:#FF9C39;" width="5.954" height="1.358"/>
					<rect x="500.021" y="327.966" style="fill:#FF9C39;" width="2.088" height="0.424"/>
					<rect x="490.82" y="328.644" style="fill:#FF9C39;" width="1.005" height="1.273"/>
					<rect x="496.387" y="347.398" style="fill:#FF9C39;" width="2.706" height="1.867"/>
					<rect x="476.902" y="350.962" style="fill:#FF9C39;" width="6.882" height="1.273"/>
					<rect x="477.134" y="339.591" style="fill:#FF9C39;" width="2.397" height="2.037"/>
					<rect x="478.371" y="323.129" style="fill:#FF9C39;" width="2.784" height="1.018"/>
					<rect x="469.247" y="337.639" style="fill:#FF9C39;" width="3.402" height="1.443"/>
					<rect x="491.67" y="350.878" style="fill:#FF9C39;" width="2.397" height="2.206"/>
					<rect x="491.052" y="322.789" style="fill:#FF9C39;" width="1.624" height="1.443"/>
					<rect x="501.336" y="341.543" style="fill:#FF9C39;" width="1.933" height="2.037"/>
					<rect x="501.49" y="352.829" style="fill:#FF9C39;" width="2.01" height="1.443"/>
					<rect x="486.335" y="353.678" style="fill:#FF9C39;" width="2.629" height="1.528"/>
					<rect x="471.489" y="354.357" style="fill:#FF9C39;" width="1.314" height="1.018"/>
					<rect x="476.051" y="346.465" style="fill:#FF9C39;" width="0.696" height="1.273"/>
					<rect x="471.412" y="326.014" style="fill:#FF9C39;" width="0.619" height="1.358"/>
					<rect x="481.773" y="326.777" style="fill:#FF9C39;" width="1.082" height="1.103"/>
					<rect x="489.892" y="333.227" style="fill:#FF9C39;" width="2.784" height="1.697"/>
					<rect x="498.475" y="323.213" style="fill:#FF9C39;" width="2.552" height="0.339"/>
					<rect x="481.309" y="333.991" style="fill:#FF9C39;" width="1.005" height="1.018"/>
					<rect x="470.407" y="322.11" style="fill:#FF9C39;" width="1.701" height="0.594"/>
					<rect x="513.147" y="332.569" style="fill:#F4B942;" width="3.306" height="1.464"/>
					<rect x="508.643" y="340.143" style="fill:#F4B942;" width="2.397" height="2.631"/>
					<rect x="514.944" y="346.592" style="fill:#F4B942;" width="1.624" height="1.782"/>
					<rect x="513.901" y="327.796" style="fill:#F4B942;" width="1.547" height="1.146"/>
					<rect x="511.581" y="323.256" style="fill:#F4B942;" width="2.01" height="0.297"/>
					<rect x="516.568" y="321.007" style="fill:#F4B942;" width="1.353" height="1.315"/>
					<rect x="511.736" y="352.575" style="fill:#F4B942;" width="2.629" height="1.443"/>
					<rect x="514.867" y="341.501" style="fill:#F4B942;" width="0.773" height="0.509"/>
					<rect x="509.493" y="327.966" style="fill:#F4B942;" width="0.773" height="1.061"/>
				</g>
			</g>
			<g>
				<path style="fill:#F9BD8C;" d="M362.025,221.593l-10.298,9.812c-0.923,1.102-2.56,1.258-3.674,0.349l-12.873-9.757l-6.182-5.43
					l-3.087-8.616l-0.503,3.123l-0.116,0.008c-2.013-1.952-5.228-1.903-7.18,0.11l-1.78,1.835c-1.828,1.885-1.878,4.81-0.228,6.779
					l-0.124,0.113l32.026,28.421c2.625,2.233,6.485,2.222,9.096-0.027l16.267-12.935L362.025,221.593z"/>
				<g>
					<g>
						<path style="fill:#F4B942;" d="M375.522,240.973l-18.51-17.248l18.024-19.342c4.763-5.111,12.768-5.394,17.879-0.631l0,0
							c5.111,4.763,5.394,12.768,0.631,17.879L375.522,240.973z"/>
						
							<rect x="364.947" y="216.663" transform="matrix(0.6817 -0.7316 0.7316 0.6817 -50.2965 343.0078)" style="fill:#FF9C39;" width="8.3" height="25.3"/>
					</g>
					<polygon style="opacity:0.49;fill:#FF9C39;" points="370.483,209.27 370.207,209.566 369.958,235.788 375.522,240.973 
						384.241,231.617 376.767,209.387 					"/>
				</g>
				<g>
					<path style="fill:#092D51;" d="M307.207,351.68L307.207,351.68c-0.67-0.082-1.151-0.697-1.069-1.367l21.455-176.155
						c0.082-0.67,0.697-1.152,1.367-1.07l0,0c0.67,0.082,1.151,0.697,1.07,1.367L308.575,350.61
						C308.493,351.28,307.877,351.762,307.207,351.68z"/>
					<path style="fill:#092D51;" d="M322.52,397.012l-1.744-0.213l4.294-35.131c0.21-1.724-1.02-3.298-2.744-3.509l-31.355-3.833
						c-1.718-0.207-3.297,1.021-3.508,2.745l-4.294,35.131l-1.744-0.213l4.294-35.131c0.328-2.684,2.78-4.605,5.465-4.275
						l31.355,3.833c2.685,0.328,4.602,2.779,4.274,5.464L322.52,397.012z"/>
					
						<rect x="284.6" y="374.106" transform="matrix(0.1211 -0.9926 0.9926 0.1211 -104.7204 631.6989)" style="fill:#092D51;" width="39.516" height="1.757"/>
					<path style="fill:#092D51;" d="M311.496,342.498l-6.24-0.763c-1.384-0.169-2.643,0.816-2.812,2.199l-1.386,11.336l11.252,1.375
						l1.386-11.336C313.865,343.926,312.88,342.667,311.496,342.498z"/>
				</g>
				<path style="fill:#092D51;" d="M432.8,258.177c0,0-1.302,29.672-21.12,36.973l-32.074,14.081l8.993,60.711h-21.122l-24.4-65.771
					c-3.578-6.865-1.198-15.329,5.433-19.324l39.326-21.627L432.8,258.177z"/>
				<path style="fill:#0E5289;" d="M432.893,258.122L432.893,258.122c1.946,16.822,1.012,33.853-2.763,50.362l-2.257,9.872
					l13.94,51.485l-20.655,0.203c0,0-26.658-43.752-26.964-51.688l-6.68-56.722L432.893,258.122z"/>
				<path style="fill:#F4B942;" d="M377.919,199.401c0,0,37.31-5.232,55.107,58.72l-45.25,5.085c0,0-8.137-6.16-18.001-56.062
					L377.919,199.401z"/>
				<path style="fill:#F9BD8C;" d="M384.821,248.213l-12.738,14.33c-1.186,1.334-2.886,2.098-4.672,2.098h-41.523h-9.033
					c-2.804,0-5.078-2.273-5.078-5.078v-2.556c0-2.805,2.273-5.078,5.078-5.078l3.777-0.073l0.627-4.295l5.672,4.368h30.338
					c1.046,0,2.025-0.515,2.617-1.377l7.92-11.53L384.821,248.213z"/>
				<g>
					<path style="fill:#F4B942;" d="M387.087,251.888l-23.752-10.874l11.363-24.821c3.003-6.559,10.754-9.442,17.313-6.439l0,0
						c6.559,3.003,9.442,10.754,6.439,17.313L387.087,251.888z"/>
					
						<rect x="372.71" y="229.493" transform="matrix(0.4163 -0.9092 0.9092 0.4163 -0.4753 484.3693)" style="fill:#FF9C39;" width="8.57" height="26.123"/>
				</g>
				<g>
					<path style="fill:#DDB819;" d="M383.366,169.592c0.001,0.004,0.001,0.004,0.002,0.009c0.465,2.292-8.591,9.986-21.149,16.539
						c-10.642,5.552-20.385,8.501-23.386,7.877c-0.542-0.114-0.861-0.344-0.934-0.689c-0.465-2.292,9.337-9.457,21.896-16.007
						C372.331,170.775,382.878,167.322,383.366,169.592z"/>
					<path style="fill:#7F2B1B;" d="M383.366,169.592c0.001,0.004,0.001,0.004,0.002,0.009c0.465,2.292-8.591,9.986-21.149,16.539
						c-10.642,5.552-20.385,8.501-23.386,7.877c-0.007-0.012-0.008-0.021-0.011-0.035c-0.465-2.292,9.337-9.457,21.891-16.006
						C371.314,172.445,380.483,169.121,383.366,169.592z"/>
					<path style="fill:#C13D0A;" d="M383.366,169.592c0.001,0.004,0.001,0.004,0.002,0.009c0.465,2.292-8.591,9.986-21.149,16.539
						c-10.642,5.552-20.385,8.501-23.386,7.877c-0.007-0.012-0.008-0.021-0.011-0.035c-0.465-2.292,9.337-9.457,21.891-16.006
						C371.314,172.445,380.483,169.121,383.366,169.592z"/>
					<path style="fill:#F9BD8C;" d="M350.381,188.218c0,0,1.869,3.565,1.927,3.704c0.298,0.715,0.521,5.337,0.592,7.013
						c0.012,0.291,0.314,0.476,0.579,0.357l1.778-0.797c0,0,5.713,6.937,6.171,7.392c0.458,0.454,6.457-4.071,6.457-4.071
						l2.397,7.086l7.716-9.575l-1.962-5.229c-0.249-0.665-0.263-1.39-0.064-2.072c0.426-1.458,0.856-4.245-1.229-6.183
						c-2.94-2.732-5.048,1.852-5.048,1.852l-4.877-2.045c0,0-5.839,1.454-9.009,0.119
						C355.809,185.769,352.63,188.392,350.381,188.218z"/>
					<path style="fill:#0E5289;" d="M377.343,197.582l-1.306-3.483c-0.252-0.668-0.261-1.391-0.065-2.071
						c0.43-1.459,0.857-4.247-1.227-6.184c-2.939-2.731-5.05,1.854-5.05,1.854l-4.877-2.047c0,0-5.839,1.452-9.011,0.118
						c0,0-3.175,2.625-5.425,2.45c0,0,1.079,2.022,1.622,3.08c-0.268,0.147-2.349,1.122-4.041-1.855
						c-1.811-3.19-1.452-11.691,4.089-15.257c5.256-3.384,21.948-10.195,27.073,7.905
						C381.753,191.37,378.79,194.478,377.343,197.582z"/>
					<path style="fill:#F4B942;" d="M373.819,170.948c-3.942,1.463-8.811,3.652-14.024,6.373
						c-6.132,3.199-11.606,6.542-15.549,9.395c-0.139-0.196-0.266-0.404-0.389-0.612c-3.555-6.172-0.309-15.668,7.898-20.05
						c8.624-4.604,17.755-2.929,21.305,3.244C373.366,169.828,373.617,170.381,373.819,170.948z"/>
					<path style="fill:#C13D0A;" d="M372.693,168.708c-4.095,1.527-8.953,3.659-14.123,6.253c-5.994,3.006-11.43,6.145-15.648,8.95
						c0.227,0.762,0.535,1.497,0.935,2.192c0.123,0.208,0.25,0.416,0.389,0.612c3.943-2.853,9.417-6.196,15.549-9.395
						c5.213-2.721,10.082-4.911,14.024-6.373c-0.202-0.566-0.453-1.12-0.759-1.65C372.944,169.096,372.821,168.9,372.693,168.708z"
						/>
					<path style="fill:#F4B942;" d="M383.367,169.592c-2.883-0.471-12.053,2.853-22.652,8.384
						c-12.554,6.549-22.356,13.714-21.891,16.006c0.002,0.013,0.004,0.022,0.011,0.035c-0.542-0.114-0.861-0.344-0.934-0.689
						c-0.465-2.292,9.337-9.457,21.895-16.007C372.331,170.775,382.878,167.322,383.367,169.592z"/>
				</g>
				<path style="fill:#F4B942;" d="M366.417,369.841l3.423,15.99c0,0-14.081,4.889-17.602,6.65
					c-0.035,0.018-0.071,0.036-0.106,0.054c-4.187,2.184-2.572,8.551,2.151,8.551h39.025l-3.713-31.244H366.417z"/>
				<path style="fill:#F4B942;" d="M419.835,369.841l3.423,15.99c0,0-14.081,4.889-17.601,6.65
					c-0.035,0.018-0.071,0.036-0.106,0.054c-4.187,2.184-2.572,8.551,2.151,8.551h39.025l-3.713-31.244H419.835z"/>
				<path style="fill:#0E5289;" d="M366.293,185.408c0.051,1.731,0.996,4.821,0.648,7.163c-0.406,2.735-2.163,4.631-2.888,4.923
					c-2.74,1.103-6.213-0.253-8.166,1.763c1.496,1.814,5.178,6.267,5.542,6.628c0.458,0.454,6.457-4.071,6.457-4.071
					s2.136-4.486,1.81-14.118c0-0.001,0-0.001,0-0.002L366.293,185.408z"/>
				<path style="fill:#0E5289;" d="M367.886,201.815c0,0,3.191-5.535,3.552-7.11c0.361-1.575-2.035-8.304-2.035-8.304l-2.068,5.875
					l0.131,4.825L367.886,201.815z"/>
				<path style="opacity:0.49;fill:#FF9C39;" d="M387.773,263.204l0.816-5.013c0,0,9.625-18.376,13.208-24.98
					c3.116-5.73-1.774-14.282-3.116-16.437c0.623,1.532,0.952,3.185,0.952,4.865c0,1.818-0.381,3.661-1.186,5.427l-11.365,24.824
					l-3.93-1.8l-1.524,1.713C385.326,261.238,387.697,263.144,387.773,263.204z"/>
			</g>
		</g>
		<g>
			<g>
				<rect y="401.085" style="fill:#00AAA6;" width="750" height="98.91"/>
			</g>
			<g>
				<path style="fill:#03726C;" d="M263.883,496.918c-34.593-34.593-81.512-54.027-130.434-54.027H0v57.104h266.96L263.883,496.918z
					"/>
				<g>
					<g>
						<path style="fill:#03726C;" d="M750,499.995V370.559h-78.59c-56.952,0-111.572,22.624-151.843,62.896l-66.54,66.54H750z"/>
						<path style="fill:#02514B;" d="M567.684,500c3.4-16.75,18.208-29.357,35.961-29.357c11.027,0,20.911,4.871,27.638,12.57
							c10.807-16.41,29.386-27.249,50.504-27.249c3.318,0,6.569,0.278,9.742,0.792c8.649-23.996,31.537-41.183,58.471-41.366V500
							H567.684z"/>
					</g>
					<g>
						<g>
							<g>
								<path style="fill:#52DBD1;" d="M426.116,412.363L426.116,412.363c-5.908-3.267-12.624-5.477-19.348-4.876
									s-13.398,4.411-16.175,10.564c-2.631,5.829-1.405,12.895,2.007,18.304c3.412,5.409,8.744,9.352,14.384,12.367
									c7.395,3.953,15.415,6.472,23.339,9.113c5.737,1.912,14.823,7.756,20.913,5.418c15.418-5.92,0.587-26.492-5.029-33.461
									C440.619,422.856,433.943,416.691,426.116,412.363z"/>
							</g>
							<g>
								<g>
									<path style="fill:#03726C;" d="M475.97,494.042c-7.419-24.51-25.538-43.909-46.312-58.092
										c-6.19-4.226-12.648-8.045-19.251-11.589c-0.709-0.38-1.341,0.698-0.631,1.079c22.33,11.987,43.516,27.684,56.574,49.863
										c3.538,6.009,6.393,12.395,8.414,19.071C474.998,495.142,476.204,494.815,475.97,494.042L475.97,494.042z"/>
								</g>
							</g>
						</g>
						<g>
							<g>
								<path style="fill:#52DBD1;" d="M486.634,392.06L486.634,392.06c-3.406-4.334-7.756-8.13-13.005-9.815
									s-11.479-0.938-15.523,2.808c-3.831,3.549-5.154,9.254-4.305,14.406c0.849,5.153,3.607,9.813,6.891,13.872
									c4.307,5.323,9.539,9.765,14.661,14.27c3.708,3.261,8.686,10.543,14.01,10.719c13.479,0.445,8.857-19.742,6.847-26.768
									C494.21,404.561,491.147,397.802,486.634,392.06z"/>
							</g>
							<g>
								<g>
									<path style="fill:#03726C;" d="M498.307,469.273c2.222-21.129-5.52-41.778-16.938-59.229
										c-3.19-4.875-6.674-9.55-10.329-14.085c-0.505-0.626-1.384,0.263-0.884,0.884c12.791,15.872,23.57,34.089,26.53,54.56
										c0.855,5.917,0.997,11.924,0.372,17.87C496.973,470.072,498.224,470.066,498.307,469.273L498.307,469.273z"/>
								</g>
							</g>
						</g>
						<g>
							<g>
								<path style="fill:#52DBD1;" d="M588.952,329.096L588.952,329.096c-4.28-2.232-9.118-3.695-13.914-3.148
									c-4.795,0.546-9.499,3.386-11.377,7.832c-1.779,4.212-0.78,9.241,1.753,13.048c2.533,3.806,6.413,6.532,10.496,8.589
									c5.354,2.696,11.13,4.357,16.84,6.107c4.134,1.267,10.73,5.285,15.042,3.508c10.917-4.5-0.042-18.945-4.177-23.828
									C599.5,336.344,594.621,332.053,588.952,329.096z"/>
							</g>
							<g>
								<g>
									<path style="fill:#03726C;" d="M626.183,386.569c-5.755-17.407-18.996-30.972-34.113-40.776
										c-4.521-2.933-9.229-5.564-14.036-7.997c-0.716-0.362-1.349,0.716-0.631,1.079c16.109,8.155,31.482,18.943,41.19,34.499
										c2.65,4.246,4.813,8.773,6.385,13.527C625.229,387.662,626.436,387.336,626.183,386.569L626.183,386.569z"/>
								</g>
							</g>
						</g>
						<g>
							<g>
								<path style="fill:#52DBD1;" d="M533.949,365.346L533.949,365.346c2.507-4.91,6.043-9.473,10.869-12.138
									c4.826-2.665,11.083-3.134,15.773-0.238c4.443,2.744,6.841,8.086,7.003,13.306c0.161,5.22-1.647,10.324-4.087,14.941
									c-3.2,6.053-7.477,11.422-11.635,16.829c-3.01,3.915-6.49,12.021-11.68,13.22c-13.14,3.036-12.498-17.663-11.88-24.945
									C528.925,379.073,530.628,371.85,533.949,365.346z"/>
							</g>
							<g>
								<g>
									<path style="fill:#03726C;" d="M538.599,443.073c-6.156-19.988-2.631-41.338,5.039-60.385
										c2.182-5.418,4.703-10.693,7.422-15.86c0.374-0.711-0.704-1.344-1.079-0.631c-9.661,18.366-16.867,38.718-15.675,59.753
										c0.335,5.919,1.342,11.787,3.088,17.455C537.63,444.172,538.837,443.845,538.599,443.073L538.599,443.073z"/>
								</g>
							</g>
						</g>
						<g>
							<g>
								<path style="fill:#068781;" d="M527.736,366.202L527.736,366.202c-2.365-4.633-5.702-8.939-10.255-11.453
									c-4.553-2.515-10.458-2.957-14.883-0.224c-4.193,2.589-6.455,7.63-6.607,12.555c-0.152,4.925,1.554,9.742,3.856,14.098
									c3.019,5.712,7.055,10.777,10.978,15.879c2.84,3.694,6.124,11.342,11.021,12.474c12.398,2.865,11.793-16.666,11.21-23.537
									C532.476,379.154,530.87,372.339,527.736,366.202z"/>
							</g>
							<g>
								<g>
									<path style="fill:#03726C;" d="M524.519,439.866c5.902-19.177,2.517-39.704-4.89-57.959
										c-2.067-5.093-4.432-10.057-6.99-14.92c-0.375-0.712-1.454-0.081-1.079,0.631c8.971,17.057,15.657,35.906,14.642,55.439
										c-0.291,5.592-1.241,11.124-2.888,16.477C523.077,440.305,524.283,440.634,524.519,439.866L524.519,439.866z"/>
								</g>
							</g>
						</g>
						<g>
							<g>
								<path style="fill:#068781;" d="M406.549,449.798L406.549,449.798c-5.2-0.111-10.573,0.789-14.944,3.608
									c-4.371,2.819-7.557,7.81-7.246,13.002c0.295,4.918,3.663,9.299,7.929,11.765c4.266,2.466,9.316,3.245,14.243,3.28
									c6.46,0.046,12.833-1.11,19.185-2.149c4.598-0.752,12.89-0.023,16.206-3.8c8.395-9.564-9.095-18.279-15.422-21.02
									C420.201,451.757,413.438,449.944,406.549,449.798z"/>
							</g>
							<g>
								<g>
									<path style="fill:#03726C;" d="M469.916,487.526c-13.691-13.88-32.689-20.643-51.713-22.959
										c-6.002-0.731-12.046-1.045-18.09-1.101c-0.805-0.007-0.805,1.243,0,1.25c19.687,0.181,39.931,3.352,56.852,14.019
										c4.378,2.76,8.432,5.99,12.067,9.675C469.598,488.984,470.481,488.1,469.916,487.526L469.916,487.526z"/>
								</g>
							</g>
						</g>
						<g>
							<g>
								<path style="fill:#00AAA6;" d="M634.333,322.647L634.333,322.647c-1.475-4.635-3.896-9.117-7.713-12.132
									c-3.817-3.015-9.196-4.325-13.697-2.479c-4.263,1.748-7.12,6.054-8.012,10.574c-0.892,4.52-0.054,9.224,1.406,13.595
									c1.913,5.73,4.864,11.02,7.704,16.326c2.056,3.841,3.918,11.399,8.263,13.19c11.001,4.535,13.424-13.576,13.935-20.003
									C636.729,335.32,636.287,328.787,634.333,322.647z"/>
							</g>
							<g>
								<g>
									<path style="fill:#03726C;" d="M620.129,390.186c8.224-16.496,8.418-35.534,4.601-53.247
										c-1.154-5.357-2.664-10.63-4.388-15.83c-0.252-0.76-1.459-0.434-1.205,0.332c5.738,17.311,9.074,35.994,4.92,54.048
										c-1.12,4.868-2.778,9.594-5.007,14.066C618.692,390.273,619.769,390.907,620.129,390.186L620.129,390.186z"/>
								</g>
							</g>
						</g>
					</g>
				</g>
			</g>
		</g>
	</g>
</g>
</svg>
